<?xml version="1.0" standalone="no"?>
<!DOCTYPE svg PUBLIC "-//W3C//DTD SVG 20010904//EN"
 "http://www.w3.org/TR/2001/REC-SVG-20010904/DTD/svg10.dtd">
<svg version="1.0" xmlns="http://www.w3.org/2000/svg"
 width="1000.000000pt" height="1000.000000pt" viewBox="0 0 1000.000000 1000.000000"
 preserveAspectRatio="xMidYMid meet">
<metadata>
Created by potrace 1.11, written by Peter Selinger 2001-2013
</metadata>
<g transform="translate(0.000000,1000.000000) scale(0.100000,-0.100000)"
fill="#000000" stroke="none">
<path d="M5660 6529 c-124 -55 -245 -109 -270 -121 -25 -11 -79 -35 -120 -53
-41 -18 -100 -43 -130 -57 -30 -14 -230 -103 -445 -198 -214 -95 -453 -201
-530 -235 l-140 -63 -3 -65 -3 -65 43 13 c24 7 167 54 318 103 401 132 1170
383 1353 442 l158 52 247 -81 246 -80 161 71 c88 38 161 71 163 73 1 1 -122
58 -275 125 -153 68 -305 135 -338 150 -33 15 -85 38 -115 50 -30 13 -59 27
-64 32 -6 4 -15 8 -20 8 -6 -1 -112 -46 -236 -101z"/>
<path d="M7475 6560 c-82 -37 -476 -213 -875 -390 -399 -178 -749 -333 -777
-346 l-53 -24 0 -65 c0 -36 3 -65 7 -65 7 0 717 231 1594 519 l276 90 224 -74
c123 -40 528 -173 899 -294 371 -121 688 -224 703 -230 16 -6 30 -11 33 -11 2
0 4 31 4 68 l0 69 -127 55 c-71 31 -488 216 -928 412 -439 196 -806 356 -815
355 -8 0 -82 -31 -165 -69z"/>
<path d="M8542 6454 l3 -176 145 -64 c80 -35 153 -67 163 -70 16 -5 17 11 17
240 l0 246 -165 0 -165 0 2 -176z"/>
<path d="M7596 6135 c-48 -17 -112 -78 -126 -119 -5 -17 -9 -46 -8 -63 l1 -33
89 1 88 1 0 114 c0 63 -1 114 -2 114 -2 -1 -20 -7 -42 -15z"/>
<path d="M7692 6038 l3 -113 90 0 90 0 -3 39 c-4 50 -26 93 -66 129 -30 28
-45 36 -94 51 l-23 8 3 -114z"/>
<path d="M8542 5242 l3 -707 510 0 c483 -1 510 0 515 17 3 10 4 68 2 128 l-3
110 -350 0 -349 0 -1 358 c0 196 0 429 1 518 1 121 -2 163 -12 171 -7 6 -82
33 -166 61 l-152 51 2 -707z"/>
<path d="M7458 5785 l-3 -85 93 0 92 0 0 85 0 85 -89 0 -90 0 -3 -85z"/>
<path d="M7690 5785 l0 -85 94 0 93 0 0 85 0 85 -93 0 -94 0 0 -85z"/>
<path d="M13 5548 c20 -49 213 -512 325 -778 l98 -235 179 0 178 0 111 357
c61 197 113 358 117 358 3 0 31 -84 63 -187 32 -104 81 -263 109 -355 34 -112
56 -168 67 -170 8 -2 89 -4 179 -4 l164 1 65 155 c94 226 310 744 343 823 l28
67 -167 0 -168 0 -135 -340 c-73 -187 -136 -340 -139 -340 -3 0 -13 24 -22 53
-9 28 -60 181 -113 340 l-97 287 -178 0 -178 0 -12 -37 c-7 -21 -60 -177 -118
-347 -94 -276 -107 -306 -117 -285 -6 13 -68 169 -136 346 l-124 323 -168 0
-167 0 13 -32z"/>
<path d="M2150 5061 c0 -406 3 -520 13 -523 6 -2 80 -4 162 -4 l150 1 1 185
c1 102 2 190 3 196 1 7 108 10 344 10 l342 0 5 -195 5 -196 163 0 162 -1 0
523 0 523 -165 0 -165 0 -2 -187 -3 -187 -340 1 c-187 1 -342 2 -345 2 -3 1
-5 84 -4 186 l1 185 -164 0 -163 0 0 -519z"/>
<path d="M3752 5058 l3 -523 145 0 c80 -1 153 1 163 3 16 4 17 37 17 523 l0
519 -165 0 -165 0 2 -522z"/>
<path d="M4426 5568 c-24 -7 -56 -28 -82 -54 -56 -56 -77 -125 -77 -254 -1
-120 20 -186 70 -231 75 -66 120 -72 563 -85 129 -4 250 -12 269 -18 73 -24
92 -105 33 -144 -23 -15 -68 -17 -447 -19 -231 -1 -430 -2 -443 -3 -22 0 -23
-1 -20 -112 l3 -113 510 1 c451 0 517 2 567 17 107 32 162 103 178 230 10 85
5 154 -16 221 -21 68 -50 103 -109 131 -65 31 -85 33 -595 51 -127 4 -194 11
-212 20 -49 25 -50 99 -2 130 23 15 72 17 462 18 l437 1 2 113 2 112 -527 -1
c-328 -1 -542 -5 -566 -11z"/>
<path d="M5859 5566 c-62 -22 -100 -56 -128 -115 -24 -52 -26 -66 -26 -191 0
-121 2 -139 22 -177 13 -23 37 -53 55 -67 68 -51 133 -59 563 -72 224 -6 275
-14 306 -45 41 -41 15 -111 -49 -128 -21 -6 -198 -10 -412 -10 -206 0 -396 0
-422 0 l-47 -1 2 -112 2 -113 510 0 c474 0 514 2 573 19 128 39 178 126 176
306 -2 193 -58 274 -207 300 -51 8 -158 14 -507 26 -96 3 -190 10 -208 16 -59
18 -67 99 -14 134 24 16 66 18 457 19 236 1 433 3 438 3 4 1 7 52 7 112 l0
110 -527 0 c-405 -1 -536 -4 -564 -14z"/>
<path d="M7182 5058 l3 -523 560 -1 c308 0 566 2 573 4 9 3 12 37 12 123 l0
119 -410 0 -410 0 0 85 0 85 385 0 386 0 -3 107 -3 108 -375 1 c-206 1 -378 2
-382 3 -5 0 -8 39 -8 86 l0 85 410 0 410 0 0 120 0 120 -575 0 -575 0 2 -522z"/>
<path d="M412 4268 l3 -33 1738 -3 1737 -2 0 35 0 35 -1741 0 -1740 0 3 -32z"/>
<path d="M4022 3978 l3 -323 103 -3 102 -3 0 241 0 240 143 1 c210 2 219 0
236 -38 10 -23 9 -30 -7 -52 -19 -26 -20 -26 -181 -29 -88 -1 -161 -6 -161
-11 0 -4 37 -41 83 -81 45 -40 122 -109 171 -154 49 -45 98 -89 109 -98 16
-15 40 -18 129 -18 63 0 108 4 106 9 -1 5 -56 55 -121 112 -119 102 -128 118
-70 119 46 0 92 32 115 79 26 54 31 189 9 231 -49 93 -81 100 -463 100 l-308
0 2 -322z"/>
<path d="M5070 3975 l0 -325 355 0 355 0 0 80 0 80 -250 0 -250 0 0 50 0 50
235 0 235 0 0 65 0 65 -235 0 -235 0 0 54 0 54 233 0 c127 1 240 1 250 1 15 1
17 11 17 76 l0 75 -355 0 -355 0 0 -325z"/>
<path d="M6332 4268 c-34 -57 -320 -582 -327 -600 -7 -17 2 -18 106 -18 l114
0 30 55 29 55 196 0 195 0 30 -55 29 -55 113 0 c62 0 113 3 112 8 0 4 -78 149
-173 322 l-172 315 -131 3 -131 3 -20 -33z m207 -253 c28 -53 51 -98 51 -100
0 -3 -51 -5 -114 -5 l-114 0 56 104 c32 57 60 102 64 100 3 -2 29 -47 57 -99z"/>
<path d="M7170 3975 l0 -325 320 0 320 0 0 80 0 80 -215 0 c-165 0 -215 3
-216 13 -1 6 -2 116 -3 242 l-1 230 -102 3 -103 3 0 -326z"/>
<path d="M7810 4225 l0 -75 43 -1 c23 0 86 -1 140 0 l97 0 0 -250 0 -250 103
3 102 3 3 247 2 247 108 0 c182 -1 162 -11 162 76 l0 75 -380 0 -380 0 0 -75z"/>
<path d="M8740 4291 c0 -6 4 -12 9 -15 5 -3 82 -94 172 -203 l163 -197 1 -110
1 -111 102 -3 102 -3 0 112 0 111 173 206 c94 114 174 210 175 214 2 4 -52 8
-120 8 l-123 0 -99 -125 c-55 -69 -102 -125 -106 -125 -4 0 -52 56 -106 125
l-99 124 -122 1 c-71 0 -123 -4 -123 -9z"/>
</g>
</svg>
